<?xml version="1.0" encoding="UTF-8"?>
<svg width="22px" height="27px" viewBox="0 0 22 27" version="1.1" xmlns="http://www.w3.org/2000/svg" xmlns:xlink="http://www.w3.org/1999/xlink">
    <title>DF2383F2-958A-4911-97A0-87703A2944CA</title>
    <g id="Redesign" stroke="none" stroke-width="1" fill="none" fill-rule="evenodd">
        <g id="00.00_REDESIGN_Fitxa-Activitat" transform="translate(-1208.000000, -70.000000)" fill="#009DDF" fill-rule="nonzero">
            <g id="CAPÇALERA-EDUCAIXA-home-Logedin*" transform="translate(0.000000, -1.000000)">
                <g id="icona-shopping-cart" transform="translate(1203.000000, 68.000000)">
                    <path d="M16,3 C18.9730632,3 21.4410745,5.16238395 21.9170737,8.00019152 L27,8 L27,30 L5,30 L5,8 L10.0829263,8.00019152 C10.5589255,5.16238395 13.0269368,3 16,3 Z M10,9 L6,9 L6,29 L26,29 L26,9 L22,9 L22.000703,13.0856015 C22.5829319,13.2917181 23,13.8471533 23,14.5 C23,15.3284271 22.3284271,16 21.5,16 C20.6715729,16 20,15.3284271 20,14.5 C20,13.8467813 20.4175435,13.2910851 21.0002925,13.0852495 L21,9 L11,9 L11.0036873,13.0866616 C11.5843566,13.2936173 12,13.8482693 12,14.5 C12,15.3284271 11.3284271,16 10.5,16 C9.67157288,16 9,15.3284271 9,14.5 C9,13.8456653 9.41897141,13.2891867 10.0032807,13.0841976 L10,9 Z M10.5,14 C10.2238576,14 10,14.2238576 10,14.5 C10,14.7761424 10.2238576,15 10.5,15 C10.7761424,15 11,14.7761424 11,14.5 C11,14.2238576 10.7761424,14 10.5,14 Z M21.5,14 C21.2238576,14 21,14.2238576 21,14.5 C21,14.7761424 21.2238576,15 21.5,15 C21.7761424,15 22,14.7761424 22,14.5 C22,14.2238576 21.7761424,14 21.5,14 Z M16,4 C13.5811072,4 11.5633971,5.7176672 11.1000555,7.99981569 L20.8999437,7.99981203 C20.4366008,5.71766536 18.4188915,4 16,4 Z" id="Combined-Shape"></path>
                </g>
            </g>
        </g>
    </g>
</svg>