<?xml version="1.0" encoding="UTF-8"?>
<svg width="23px" height="27px" viewBox="0 0 23 27" version="1.1" xmlns="http://www.w3.org/2000/svg" xmlns:xlink="http://www.w3.org/1999/xlink">
    <title>AC2839A1-508A-4B7F-B49F-732E061617F4</title>
    <g id="Redesign" stroke="none" stroke-width="1" fill="none" fill-rule="evenodd">
        <g id="00.00_REDESIGN_Fitxa-Activitat" transform="translate(-1171.000000, -70.000000)" fill="#009DDF" fill-rule="nonzero">
            <g id="CAPÇALERA-EDUCAIXA-home-Logedin*" transform="translate(0.000000, -1.000000)">
                <g id="icona-planificador" transform="translate(1166.000000, 68.000000)">
                    <path d="M23,3 C24.6568542,3 26,4.34314575 26,6 L27,6 C27.5522847,6 28,6.44771525 28,7 L28,9 C28,9.55228475 27.5522847,10 27,10 L26,10 L26,27 C26,28.5976809 24.75108,29.9036609 23.1762728,29.9949073 L23,30 L6,30 L6,29 L5,29 L5,28 L6,28 L6,26 L5,26 L5,25 L6,25 L6,23 L5,23 L5,22 L6,22 L6,20 L5,20 L5,19 L6,19 L6,17 L5,17 L5,16 L6,16 L6,14 L5,14 L5,13 L6,13 L6,11 L5,11 L5,10 L6,10 L6,8 L5,8 L5,7 L6,7 L6,5 L5,5 L5,4 L6,4 L6,3 L23,3 Z M22,4 L7,4 L7,29 L22,29 L22,4 Z M23,4 L23,29 C24.0543618,29 24.9181651,28.1841222 24.9945143,27.1492623 L25,27 L25,6 C25,4.9456382 24.1841222,4.08183488 23.1492623,4.00548574 L23,4 Z M20,6 L20,11 L9,11 L9,6 L20,6 Z M19,7 L10,7 L10,10 L19,10 L19,7 Z M27,7 L26,7 L26,9 L27,9 L27,7 Z" id="Combined-Shape"></path>
                </g>
            </g>
        </g>
    </g>
</svg>