<?xml version="1.0" encoding="UTF-8"?>
<svg width="29px" height="30px" viewBox="0 0 29 30" version="1.1" xmlns="http://www.w3.org/2000/svg" xmlns:xlink="http://www.w3.org/1999/xlink">
    <title>DD0A64C3-BCA6-4953-BE28-DD0872209EB6</title>
    <g id="Redesign" stroke="none" stroke-width="1" fill="none" fill-rule="evenodd">
        <g id="05.00_REDESIGN_Planificador_Cistella" transform="translate(-154.000000, -710.000000)" fill="#4A4A4A">
            <g id="actividades" transform="translate(154.000000, 620.000000)">
                <g id="descuento-individual" transform="translate(0.000000, 90.000000)">
                    <path d="M17.6680375,19.4759237 C16.9969485,19.4890232 16.4672947,18.9182061 16.4544566,18.273016 C16.4411869,17.6077757 17.0170687,17.0827267 17.6680375,17.0700015 C18.3391804,17.056902 18.8688881,17.627719 18.8816723,18.273016 C18.8684566,18.9379355 18.3389646,19.4628242 17.6680375,19.4759237 M17.6680375,15.7867859 C16.2839468,15.759678 15.1863406,16.9417868 15.1598552,18.273016 C15.1325067,19.6449338 16.3250504,20.7328868 17.6680375,20.7591392 C19.0214353,20.7856055 20.1002698,19.6560016 20.1723359,18.361344 C20.1751948,18.3328994 20.176921,18.3037063 20.1762737,18.273016 C20.176921,18.2425931 20.1751948,18.2135604 20.1724438,18.1853296 C20.1011329,16.8550094 19.0225681,15.8133057 17.6680375,15.7867859 M9.40125255,12.3389462 C9.38798288,11.6737058 9.96386472,11.1486568 10.6148874,11.1359316 C11.2860303,11.1227252 11.8156302,11.6936492 11.8285222,12.3389462 C11.8152526,13.0039192 11.2858145,13.5287008 10.6148874,13.5418538 C9.94374446,13.5550068 9.41409068,12.9841362 9.40125255,12.3389462 M13.1191319,12.4272742 C13.1219908,12.398883 13.123717,12.3696364 13.1231236,12.3389462 C13.123717,12.3084163 13.1220448,12.279437 13.1191858,12.2512063 C13.0479288,10.9209395 11.9693641,9.87923585 10.6148874,9.85271606 C9.23068882,9.82560813 8.13313656,11.0076635 8.10665118,12.3389462 C8.07930272,13.710864 9.27184635,14.79871 10.6148874,14.8250693 C11.9682313,14.8515891 13.0470658,13.7219317 13.1191319,12.4272742 M18.2269816,10.8181219 C18.4348191,10.5345847 18.2764462,10.103852 17.9947625,9.94029552 C17.667498,9.75027268 17.3160677,9.88811142 17.1091473,10.1704723 C15.5897168,12.2435605 14.0702863,14.3166486 12.5508558,16.3896834 C11.7191824,17.5243667 10.8875628,18.65905 10.0559432,19.7936799 C9.84810578,20.0772705 10.0064787,20.5080032 10.2881624,20.6715597 C10.6154268,20.8615291 10.9668571,20.7236904 11.1737776,20.441383 C12.6932081,18.3682948 14.2126385,16.2952066 15.732069,14.222065 C16.5637425,13.0874886 17.3953081,11.9528052 18.2269816,10.8181219 M16.5495494,1.15624285 L18.1677549,3.79827653 L20.4581291,2.84384415 L20.534391,2.80994327 C21.4929857,2.38368138 22.0601176,2.25946802 22.8298572,2.55594725 C23.7526439,2.91139673 24.3741628,3.79219547 24.3672265,4.77038874 L24.3472717,5.09015904 L24.0988009,8.07160478 L26.3329965,8.59506687 L26.7578495,8.68611793 C27.6543028,8.88570228 28.2250473,9.16657295 28.6372964,9.83518904 C29.2061537,10.7577165 29.0771122,11.8803906 28.3692295,12.6968638 L26.3700206,15.0016115 L27.8947677,16.7574765 L28.0273708,16.9035939 C28.7312386,17.6817951 29.0423576,18.2194994 28.9953893,19.051927 C28.9364201,20.0948747 28.1764779,20.9774071 27.1594254,21.2158214 L24.0988009,21.9325777 L24.2941771,24.2544439 L24.3346463,24.6343391 L24.3495545,24.8120165 C24.3994283,25.516838 24.3077251,26.0737491 23.9388354,26.5922624 C23.3438072,27.4286388 22.2548854,27.8111879 21.2846546,27.4931616 L21.1241535,27.4336281 L18.1677549,26.2059059 L16.5312616,28.8786627 C16.5025353,28.9257151 16.4726638,28.9691046 16.447461,29.0027037 L16.413885,29.0449936 C15.3559304,30.4194339 13.3301343,30.2851166 12.4232625,28.8044964 L10.8318109,26.2059059 L8.54162545,27.1612998 L8.46545579,27.1951545 C7.50687858,27.6213455 6.9398858,27.7455092 6.17029087,27.4491091 C5.24744357,27.0938003 4.62584846,26.2128772 4.63276625,25.2348664 L4.64569388,24.9995724 L4.89980657,21.9325777 L2.59533707,21.3942722 L2.24219845,21.3189236 C1.34576572,21.1193823 0.774969593,20.8384931 0.362692996,20.1698324 C-0.206136327,19.2472672 -0.0770994112,18.1246087 0.630763778,17.3081581 L2.62954513,15.0016115 L1.10520933,13.2474542 L0.972515508,13.101254 C0.268753952,12.3232472 -0.0424016972,11.7854564 0.00462010077,10.9531318 C0.063588198,9.91011763 0.823556482,9.02755488 1.84041518,8.78927261 L4.89980657,8.07160478 L4.69865928,5.68408002 L4.6504284,5.19303204 C4.60055575,4.48816632 4.69226366,3.93126417 5.06117422,3.41279193 C5.65622137,2.57638893 6.74517401,2.19380596 7.71536273,2.51188336 L7.87585614,2.57142618 L10.8308526,3.79827653 L12.0295543,1.84205853 L12.2656605,1.43858841 C12.7575612,0.617998277 13.2409611,0.143978511 14.0525058,0.0293111726 C15.0755134,-0.115325779 16.0114451,0.27767115 16.5495494,1.15624285 Z M14.3145537,2.01071147 L14.2787861,2.04370204 C14.2242948,2.10020273 14.1512961,2.19557061 14.0619058,2.33541194 L13.9918226,2.44871931 L13.7348619,2.88701116 L11.6429187,6.30095223 L7.1801917,4.44653977 L7.09229194,4.41235245 C6.97093244,4.37256461 6.78830517,4.43518596 6.69075944,4.572297 C6.65283049,4.6256029 6.63333912,4.68548641 6.63568711,4.8495163 L6.64670127,5.07612616 L6.6915989,5.51617626 L7.03771285,9.62438794 L2.29671797,10.7365239 C2.13265841,10.7749683 2.00973009,10.9192386 2.00122604,11.065941 L2.00122604,11.1325378 C2.00538979,11.1852803 2.02323245,11.2351244 2.07599342,11.3119866 L2.15742669,11.4191045 L2.28053746,11.5636477 L2.61485425,11.9355959 L5.27758923,14.9997869 L2.14189216,18.6183073 C1.98731454,18.7965974 1.97037747,18.9665335 2.06510776,19.1201734 C2.10942331,19.1920477 2.1523024,19.2308752 2.33550837,19.283672 L2.53021427,19.333444 L3.05027391,19.4467013 L7.0354943,20.3776166 L6.64268202,25.1092919 L6.63271622,25.2490127 C6.63178508,25.380654 6.73003961,25.5215049 6.88909833,25.5827447 L6.91980514,25.5941262 L6.9764444,25.6085267 C6.99551702,25.6110948 7.01561838,25.6111818 7.03925617,25.6080403 L7.12328644,25.5881831 L7.2435812,25.5444709 L7.77160506,25.3154751 L11.6427326,23.7005616 L14.1287755,27.759879 C14.2942769,28.0300877 14.5771315,28.0713363 14.7869655,27.8693113 L14.841,27.807 L17.3552084,23.702876 L21.8196929,25.5584681 L21.9076106,25.5926549 C22.0290779,25.63247 22.2117215,25.5698445 22.3091757,25.432862 C22.3471352,25.3795059 22.3666392,25.3195838 22.3651452,25.1665361 L22.3565577,24.9792406 L22.3458987,24.8461949 L22.3012203,24.4221437 L21.9610141,20.3791068 L26.7029655,19.2686069 C26.8673217,19.230079 26.9902809,19.0857802 26.9987744,18.9392598 L26.9987744,18.8725908 C26.9954419,18.8303552 26.9833523,18.7899857 26.9516252,18.7361517 L26.8879463,18.6433861 C26.8744251,18.6256033 26.8593366,18.6065 26.8425107,18.5858365 L26.719347,18.4412176 L26.3846661,18.0688091 L23.7218107,15.0023237 L26.8581011,11.3867146 C27.0126908,11.2084106 27.0296256,11.0384963 26.9348816,10.884848 C26.8969068,10.8232576 26.8599869,10.7859397 26.7344697,10.7432041 L26.5760998,10.697563 L26.3387423,10.6417123 L25.8767605,10.5423339 L21.9623912,9.62521455 L22.3511546,4.96559437 L22.365,4.74 L22.3596581,4.68994786 C22.3389556,4.60169607 22.2770246,4.51600754 22.1852495,4.45913437 L22.1110003,4.42229255 L22.0802752,4.41090369 L22.0236016,4.39649307 C22.0045181,4.39392254 21.9844065,4.39383411 21.9607593,4.39697511 L21.8767031,4.41683367 L21.7563882,4.46055258 L21.2274353,4.68996657 L17.356548,6.30302181 L14.8440225,2.20083753 C14.7558964,2.05695264 14.64125,1.99121255 14.4402751,1.99940382 L14.3145537,2.01071147 Z" id="Combined-Shape-Copy"></path>
                </g>
            </g>
        </g>
    </g>
</svg>