<?xml version="1.0" encoding="UTF-8"?>
<svg width="34px" height="34px" viewBox="0 0 34 34" version="1.1" xmlns="http://www.w3.org/2000/svg" xmlns:xlink="http://www.w3.org/1999/xlink">
    <title>4248EB8B-C896-4615-84C8-FBEA556DA527</title>
    <g id="Redesign" stroke="none" stroke-width="1" fill="none" fill-rule="evenodd">
        <g id="01.02_REDESIGN_Planificador_Activitats_error" transform="translate(-940.000000, -403.000000)" fill="#009AD8" fill-rule="nonzero">
            <g id="ayuda" transform="translate(924.000000, 370.000000)">
                <g id="CONTENT*" transform="translate(16.000000, 33.000000)">
                    <path d="M8.9964,27.0205083 L18.1849,6.98884167 L33.3793583,13.95955 L24.1908583,33.9905083 L8.9964,27.0205083 Z M10.8749,26.3228 L23.4938583,32.1113 L31.5008583,14.65655 L18.8819,8.86805 L10.8749,26.3228 Z M18.8904708,16.8263875 L25.4623875,19.8417625 L27.0908458,16.2923042 L20.5189292,13.2776375 L18.8904708,16.8263875 Z M26.1600958,21.7202625 L17.0119708,17.5233875 L19.8212208,11.3991375 L28.9693458,15.5953042 L26.1600958,21.7202625 Z M24.7342208,24.725225 L15.6640125,20.5651833 L16.2547625,19.2774333 L25.3249708,23.437475 L24.7342208,24.725225 Z M23.6246875,27.1442542 L14.5551875,22.9835042 L15.1459375,21.6957542 L24.2154375,25.8565042 L23.6246875,27.1442542 Z M17.0733125,27.0660542 L13.4459375,25.4021792 L14.0366875,24.1144292 L17.6640625,25.7783042 L17.0733125,27.0660542 Z M2.01320442e-14,5.33594583 L14.728375,1.31827917 L16.7634167,8.77844583 L15.3963333,9.15102917 L13.7352917,3.0572375 L1.73895833,6.32902917 L6.27866667,22.9727375 L9.75091667,22.0264042 L10.1227917,23.3934875 L5.28558333,24.7124042 L2.01320442e-14,5.33594583 Z M5.43631667,8.44184583 L6.33165,11.7235542 L12.517525,10.0363042 L11.6221917,6.75459583 L5.43631667,8.44184583 Z M5.33785833,13.4625125 L3.69735833,7.4487625 L12.6159833,5.0156375 L14.2564833,11.0293875 L5.33785833,13.4625125 Z M6.23184583,16.3394083 L5.85997083,14.972325 L12.2030958,13.242575 L12.5749708,14.6096583 L6.23184583,16.3394083 Z M6.86679583,18.6635917 L6.49350417,17.2965083 L10.9680458,16.07605 L11.3413375,17.442425 L6.86679583,18.6635917 Z M18.430125,7.08333334e-05 L30.9881667,5.72907083 L28.6867917,10.7809042 L27.3969167,10.1922792 L29.1117917,6.43102917 L19.131375,1.87715417 L17.6644167,5.0972375 L16.37525,4.5107375 L18.430125,7.08333334e-05 Z" id="Shape"></path>
                </g>
            </g>
        </g>
    </g>
</svg>