<?xml version="1.0" encoding="UTF-8"?>
<svg width="21px" height="22px" viewBox="0 0 21 22" version="1.1" xmlns="http://www.w3.org/2000/svg" xmlns:xlink="http://www.w3.org/1999/xlink">
    <title>764288E4-CAC0-4632-B265-0DB4BE914EB6</title>
    <g id="Redesign" stroke="none" stroke-width="1" fill="none" fill-rule="evenodd">
        <g id="00.03_REDESIGN_Fitxa-Activitat_añadiendo" transform="translate(-1279.000000, -618.000000)" fill="#000000">
            <g id="cabecera" transform="translate(75.000000, 213.000000)">
                <g id="datos-cabecera" transform="translate(849.000000, 68.000000)">
                    <g id="ACTIVITAT-icons*" transform="translate(316.000000, 332.018797)">
                        <g id="ACTIVITAT---compartir*" transform="translate(39.000000, 4.992481)">
                            <path d="M17.012733,20.7231133 C16.6357998,20.7231133 16.2764517,20.6475486 15.9494801,20.5110445 C15.6225544,20.3744953 15.3280052,20.1770068 15.0805326,19.933069 C14.83306,19.6891312 14.6327098,19.3986989 14.4942735,19.0764428 C14.3557915,18.7540964 14.2792233,18.399881 14.2792233,18.0283317 C14.2792233,17.6566922 14.3557915,17.3024768 14.4942735,16.9801304 C14.6327098,16.6578291 14.83306,16.367442 15.0805326,16.1235042 C15.3280052,15.8795664 15.6225544,15.6820779 15.9494801,15.5456189 C16.2764517,15.4090697 16.6357998,15.3335501 17.012733,15.3335501 C17.389712,15.3335501 17.7491059,15.4090697 18.0761233,15.5456189 C18.4030948,15.6820779 18.6976898,15.8795664 18.9451624,16.1235042 C19.1926808,16.367442 19.393031,16.6578291 19.5314673,16.9801304 C19.6699493,17.3024768 19.7465632,17.6566922 19.7465632,18.0283317 C19.7465632,18.399881 19.6699493,18.7540964 19.5314673,19.0764428 C19.393031,19.3986989 19.1926808,19.6891312 18.9451624,19.933069 C18.6976898,20.1770068 18.4030948,20.3744953 18.0761233,20.5110445 C17.7491059,20.6475486 17.389712,20.7231133 17.012733,20.7231133 M3.98726699,13.6694103 C3.61024223,13.6694103 3.25089408,13.5938907 2.92392252,13.4574318 C2.59695097,13.3209277 2.30235601,13.1234392 2.05488342,12.8795014 C1.80741083,12.6355636 1.60706061,12.3451765 1.46857854,12.0228752 C1.33009647,11.7005739 1.25352834,11.3463134 1.25352834,10.974719 C1.25352834,10.6031246 1.33009647,10.2489092 1.46857854,9.92660795 C1.60706061,9.60435183 1.80741083,9.31396471 2.05488342,9.07007204 C2.30235601,8.82613422 2.59695097,8.62864571 2.92392252,8.49214164 C3.25089408,8.35563758 3.61024223,8.28016311 3.98726699,8.28016311 C4.36424596,8.28016311 4.72359411,8.35563758 5.05051987,8.49214164 C5.37744564,8.62864571 5.6720406,8.82613422 5.91946739,9.07007204 C6.16693998,9.31396471 6.3672902,9.60435183 6.50577227,9.92660795 C6.64420854,10.2489092 6.72082247,10.6031246 6.72082247,10.974719 C6.72082247,11.3463134 6.64393378,11.7005739 6.50508535,12.0228752 C6.36628272,12.3451765 6.16552035,12.6355636 5.91781879,12.8795014 C5.67007144,13.1234392 5.3753391,13.3209277 5.04859651,13.4574318 C4.72185393,13.5938907 4.36310111,13.6694103 3.98726699,13.6694103 M17.012733,1.23566872 C17.389712,1.23566872 17.7491059,1.31114319 18.0761233,1.44764725 C18.4030948,1.58415132 18.6976898,1.78163983 18.9451624,2.02557765 C19.1926808,2.26951546 19.393031,2.55990258 19.5314673,2.88220384 C19.6699493,3.2045051 19.7465632,3.5587205 19.7465632,3.93036004 C19.7465632,4.30195443 19.6699493,4.65612469 19.5314673,4.97842595 C19.393031,5.30068207 19.1926808,5.59106919 18.9451624,5.835007 C18.6976898,6.07889968 18.4030948,6.27634305 18.0761233,6.41284712 C17.7491059,6.54935118 17.389712,6.62487079 17.012733,6.62487079 C16.6357998,6.62487079 16.2764517,6.54935118 15.9494801,6.41284712 C15.6225544,6.27634305 15.3280052,6.07889968 15.0805326,5.835007 C14.83306,5.59106919 14.6327098,5.30068207 14.4942735,4.97842595 C14.3557915,4.65612469 14.2792233,4.30195443 14.2792233,3.93036004 C14.2792233,3.5587205 14.3560662,3.2045051 14.4949146,2.88220384 C14.6337173,2.55990258 14.8345254,2.26951546 15.082227,2.02557765 C15.3299744,1.78163983 15.6246609,1.58415132 15.9514035,1.44764725 C16.2781461,1.31114319 16.6368989,1.23566872 17.012733,1.23566872 M16.0821005,14.2156974 C15.7833383,14.2866579 15.4976274,14.3909318 15.2290436,14.524276 C14.9605057,14.6576203 14.7091405,14.82008 14.479253,15.0072765 C14.2493196,15.1944731 14.0409096,15.4064967 13.8581902,15.6390141 L12.328293,14.7966973 L10.7983959,13.9543806 L9.26849873,13.1120639 L7.73855578,12.269702 C7.77441274,12.1682267 7.80619401,12.0647653 7.8337622,11.9596337 C7.8612846,11.854457 7.88454812,11.7476101 7.90336959,11.6393186 C7.92214527,11.5309821 7.9364789,11.4212913 7.94604991,11.3104269 C7.95566672,11.1995625 7.96061251,11.0875696 7.96061251,10.974719 C7.96061251,10.8607399 7.95566672,10.7481602 7.94600412,10.6370249 C7.93629572,10.5258897 7.9218705,10.4161989 7.90277426,10.3079526 C7.88372382,10.1996612 7.86000236,10.0928143 7.83188463,9.98741184 C7.80367532,9.88196426 7.77102396,9.7780063 7.73406793,9.67540255 L9.26277444,8.83416918 L10.7914809,7.99284553 L12.3202332,7.15161216 L13.8489398,6.31033365 C14.0304685,6.54402463 14.238329,6.75722195 14.468125,6.945547 C14.6978751,7.13382691 14.949515,7.29727969 15.2186941,7.43152674 C15.4878732,7.56577379 15.7745458,7.67076997 16.0742697,7.7422721 C16.3739936,7.81372909 16.6867689,7.85160174 17.0081994,7.85160174 C17.5563118,7.85160174 18.0792831,7.741595 18.5554526,7.54275227 C19.0315763,7.34390955 19.4608524,7.05618571 19.821666,6.70079666 C20.1824795,6.34545275 20.474739,5.92239849 20.6768294,5.45280465 C20.8789198,4.98325596 20.9907953,4.46712254 20.9907953,3.92571059 C20.9907953,3.3842535 20.8791945,2.86821037 20.6774705,2.39861653 C20.4757922,1.92906783 20.1839449,1.50605871 19.8234519,1.1507148 C19.4629589,0.795370895 19.0337744,0.507692194 18.5574217,0.30884947 C18.0810691,0.110006746 17.5575024,0 17.0081994,0 C16.4589421,0 15.9353755,0.110006746 15.4590228,0.30884947 C14.9826701,0.507692194 14.5535314,0.795370895 14.1930384,1.1507148 C13.8325454,1.50605871 13.5406981,1.92906783 13.3389282,2.39861653 C13.13725,2.86821037 13.025695,3.3842535 13.025695,3.92571059 C13.025695,4.03968968 13.030595,4.15254026 13.0402576,4.26403663 C13.049966,4.37553301 13.0643912,4.48567517 13.0834416,4.59423743 C13.1025379,4.70284483 13.1262593,4.80982718 13.1544229,4.91504907 C13.1825406,5.02031609 13.2151919,5.12373236 13.2521938,5.2252076 L11.7245863,6.06644097 L10.1970247,6.9076292 L8.66946303,7.74886258 L7.14185559,8.59009595 C6.96032684,8.35523132 6.75246635,8.14153746 6.52271617,7.95303185 C6.29296599,7.76452624 6.04132612,7.60125402 5.77214701,7.46732295 C5.5030137,7.33339188 5.21634116,7.22880196 4.91661724,7.15770609 C4.61689331,7.08665537 4.30402641,7.04900841 3.98255018,7.04900841 C3.43443778,7.04900841 2.91146647,7.15901516 2.43534276,7.35785788 C1.95921905,7.55670061 1.52989716,7.84433417 1.16908359,8.19967808 C0.808315815,8.55502199 0.516056366,8.97807624 0.313965964,9.44762494 C0.111875562,9.91717364 0,10.4332619 0,10.974719 C0,11.516131 0.111875562,12.0322192 0.314011758,12.5018131 C0.516193749,12.9713618 0.808590581,13.394416 1.16972471,13.7498051 C1.53081305,14.1051941 1.96054709,14.3928728 2.43735771,14.5917155 C2.91416833,14.7905583 3.43800973,14.900565 3.98726699,14.900565 C4.30874323,14.900565 4.62151854,14.8626472 4.92128826,14.7911451 C5.22105798,14.7195978 5.5078679,14.6144662 5.77727598,14.4799032 C6.04672985,14.3454304 6.29882767,14.1815714 6.52921897,13.9926144 C6.75965606,13.8036574 6.96838664,13.5896475 7.15110604,13.354828 L8.67990414,14.1972351 L10.2086564,15.0395969 L11.7374545,15.8819588 L13.266161,16.7243658 C13.2291592,16.8269244 13.1961873,16.9315144 13.1675658,17.0377745 C13.1389444,17.1440797 13.1146734,17.25201 13.0949818,17.3614299 C13.0753818,17.4708499 13.0603155,17.5816691 13.0502407,17.6937072 C13.0401202,17.805655 13.0348996,17.9187764 13.0348996,18.0327555 C13.0348996,18.573084 13.1465004,19.0886306 13.3482245,19.5579536 C13.5499485,20.0273669 13.84175,20.4505566 14.2022431,20.8062165 C14.5627819,21.1618764 14.9919206,21.4500065 15.4682732,21.6492103 C15.9446259,21.8484142 16.4681926,21.9586466 17.0174956,21.9586466 C17.5667987,21.9586466 18.0903195,21.848685 18.5666722,21.6497971 C19.0430249,21.4509544 19.4721636,21.1632757 19.8327024,20.8078867 C20.1931954,20.4524976 20.4849969,20.0294434 20.6867667,19.5598495 C20.888445,19.0903008 21,18.5742126 21,18.0327555 C21,17.4912984 20.8881702,16.9752552 20.6859882,16.5057065 C20.483852,16.0361578 20.1914094,15.6131487 19.8303211,15.2578048 C19.4692327,14.9024609 19.0394987,14.6147822 18.5626881,14.4159395 C18.0858775,14.2171419 17.5619903,14.1071803 17.012733,14.1071803 C16.6924016,14.1071803 16.3807712,14.1447821 16.0821005,14.2156974 Z" id="Fill-1"></path>
                        </g>
                    </g>
                </g>
            </g>
        </g>
    </g>
</svg>