<?xml version="1.0" encoding="UTF-8"?>
<svg width="22px" height="21px" viewBox="0 0 22 21" version="1.1" xmlns="http://www.w3.org/2000/svg" xmlns:xlink="http://www.w3.org/1999/xlink">
    <title>BE05B59C-EEA8-409A-9B06-CB521A9B8775</title>
    <g id="Redesign" stroke="none" stroke-width="1" fill="none" fill-rule="evenodd">
        <g id="05.00_REDESIGN_Planificador_Cistella" transform="translate(-1040.000000, -382.000000)" fill="#4A4A4A">
            <g id="Temps" transform="translate(1021.000000, 370.000000)">
                <g id="ICONO-CUENTA-ATRÃS-Copy" transform="translate(19.000000, 12.000000)">
                    <path d="M8.7206,0.1572 C11.4086,-0.3088 14.1156,0.2692 16.3726,1.7842 L16.3726,1.7842 L17.0356,0.8282 C17.2196,0.5622 17.4396,0.5992 17.5266,0.9112 L17.5266,0.9112 L18.2966,3.6872 C18.3836,3.9982 18.1906,4.2762 17.8686,4.3052 L17.8686,4.3052 L14.9986,4.5622 C14.6776,4.5912 14.5646,4.3972 14.7486,4.1322 L14.7486,4.1322 L15.4086,3.1772 C12.3326,1.1262 8.3996,1.2612 5.5026,3.2572 C5.4926,3.2642 5.4826,3.2712 5.4726,3.2782 C4.6506,3.8502 3.9126,4.5712 3.3036,5.4352 C0.5016,9.4132 1.4576,14.9292 5.4356,17.7312 C5.7076,17.9232 5.9886,18.0982 6.2766,18.2572 C6.2776,18.2572 6.2786,18.2582 6.2796,18.2582 C6.4356,18.3442 6.5976,18.4252 6.7596,18.5012 C6.7676,18.5052 6.7756,18.5102 6.7836,18.5152 C7.4716,18.8372 8.1966,19.0682 8.9526,19.2042 C9.4116,19.2862 9.7186,19.7252 9.6356,20.1852 C9.5536,20.6452 9.1136,20.9512 8.6546,20.8682 C7.1396,20.5962 5.7286,20.0062 4.4616,19.1142 C3.9766,18.7722 3.5276,18.3952 3.1146,17.9882 L3.1146,17.9882 C3.1066,17.9802 3.1026,17.9772 3.0996,17.9732 C1.5606,16.4492 0.5346,14.4912 0.1566,12.3142 C0.1196,12.1002 0.0906,11.8872 0.0666,11.6742 C0.0646,11.6612 0.0616,11.6482 0.0596,11.6342 C0.0366,11.4222 0.0206,11.2072 0.0106,10.9962 C0.0106,10.9882 0.0116,10.9812 0.0106,10.9742 C-0.0884,8.8022 0.4866,6.6692 1.6776,4.8252 C1.6846,4.8112 1.6916,4.7972 1.7006,4.7842 C1.7726,4.6732 1.8486,4.5622 1.9246,4.4542 C1.9706,4.3882 2.0186,4.3222 2.0666,4.2572 C2.0776,4.2412 2.0906,4.2272 2.1026,4.2132 C3.5456,2.2842 5.5676,0.9332 7.8846,0.3372 L7.8846,0.3372 L7.9146,0.3292 C7.9166,0.3292 7.9176,0.3292 7.9196,0.3282 C8.1826,0.2612 8.4506,0.2042 8.7206,0.1572 Z M12.6421,19.0826 C13.0951,18.9696 13.5541,19.2456 13.6661,19.6986 C13.7801,20.1516 13.5041,20.6106 13.0511,20.7236 C12.8441,20.7746 12.6331,20.8206 12.4241,20.8586 C12.1911,20.9026 11.9631,20.8456 11.7831,20.7196 C11.6091,20.5966 11.4801,20.4086 11.4391,20.1826 C11.3541,19.7226 11.6571,19.2816 12.1161,19.1966 C12.2911,19.1646 12.4691,19.1256 12.6421,19.0826 Z M15.3896,17.8751 C15.7796,17.6181 16.3036,17.7251 16.5606,18.1141 C16.8186,18.5041 16.7116,19.0291 16.3216,19.2861 C16.1446,19.4031 15.9606,19.5171 15.7766,19.6231 C15.4816,19.7931 15.1276,19.7661 14.8666,19.5821 C14.7686,19.5131 14.6846,19.4231 14.6216,19.3131 C14.3886,18.9091 14.5266,18.3921 14.9316,18.1581 C15.0866,18.0691 15.2406,17.9741 15.3896,17.8751 Z M17.5733,15.8195 C17.8533,15.4455 18.3823,15.3695 18.7573,15.6505 C19.1303,15.9305 19.2063,16.4605 18.9263,16.8345 C18.7983,17.0045 18.6633,17.1735 18.5253,17.3365 C18.2393,17.6715 17.7483,17.7295 17.3943,17.4805 L17.3943,17.4805 L17.3323,17.4325 C16.9773,17.1295 16.9343,16.5955 17.2363,16.2405 C17.3523,16.1045 17.4653,15.9625 17.5733,15.8195 Z M18.94,13.1478 C19.08,12.7018 19.555,12.4538 20,12.5938 C20.446,12.7338 20.693,13.2078 20.554,13.6538 C20.49,13.8568 20.42,14.0598 20.344,14.2588 C20.178,14.6958 19.689,14.9138 19.253,14.7478 C19.185,14.7218 19.123,14.6888 19.066,14.6488 C18.758,14.4308 18.623,14.0258 18.764,13.6558 C18.828,13.4888 18.887,13.3178 18.94,13.1478 Z M9.998,3.6856 C10.376,3.6856 10.682,3.9926 10.682,4.3696 L10.682,4.3696 L10.682,10.3526 L16.176,13.1936 C16.512,13.3666 16.643,13.7796 16.469,14.1146 C16.348,14.3506 16.109,14.4846 15.861,14.4846 C15.755,14.4846 15.648,14.4606 15.548,14.4086 L15.548,14.4086 L9.314,11.1856 L9.314,4.3696 C9.314,3.9926 9.62,3.6856 9.998,3.6856 Z M20.1484,9.2979 C20.6144,9.2799 21.0074,9.6429 21.0264,10.1099 C21.0344,10.3229 21.0364,10.5389 21.0314,10.7519 C21.0214,11.2179 20.6344,11.5889 20.1684,11.5779 C19.9934,11.5739 19.8334,11.5179 19.7004,11.4239 C19.4774,11.2679 19.3344,11.0059 19.3414,10.7139 C19.3454,10.5359 19.3434,10.3549 19.3364,10.1759 C19.3184,9.7099 19.6814,9.3169 20.1484,9.2979 Z M19.182,6.1431 C19.615,5.9701 20.107,6.1811 20.281,6.6151 C20.359,6.8121 20.434,7.0151 20.5,7.2161 C20.647,7.6601 20.407,8.1381 19.964,8.2851 C19.699,8.3731 19.422,8.3221 19.21,8.1731 C19.067,8.0721 18.955,7.9271 18.895,7.7481 C18.839,7.5781 18.777,7.4081 18.71,7.2421 C18.537,6.8091 18.748,6.3171 19.182,6.1431 Z" id="Combined-Shape"></path>
                </g>
            </g>
        </g>
    </g>
</svg>