<?xml version="1.0" encoding="UTF-8"?>
<svg width="14px" height="14px" viewBox="0 0 14 14" version="1.1" xmlns="http://www.w3.org/2000/svg" xmlns:xlink="http://www.w3.org/1999/xlink">
    <title>B22BDADA-40D5-41E5-ABAF-833949C0AB9D</title>
    <g id="Redesign" stroke="none" stroke-width="1" fill="none" fill-rule="evenodd">
        <g id="05.00_REDESIGN_Planificador_Cistella" transform="translate(-1261.000000, -655.000000)" fill="#009AD8">
            <g id="actividades" transform="translate(154.000000, 620.000000)">
                <g id="Button-/-Activitat-/-Off-Copy" transform="translate(1097.000000, 24.000000)">
                    <g id="Basura" transform="translate(10.000000, 11.000000)">
                        <path d="M9,1.75 L9,1.3125 C9,1.0714375 8.776,0.875 8.5,0.875 L5.5,0.875 C5.2245,0.875 5,1.0714375 5,1.3125 L5,1.75 L9,1.75 L9,1.75 Z M10,1.75 L13.5,1.75 C13.7765,1.75 14,1.946 14,2.1875 C14,2.429 13.7765,2.625 13.5,2.625 L12.9630485,2.625 L12.06955,12.788125 C12.00955,13.4675625 11.35255,14 10.57355,14 L3.42605,14 C2.64705,14 1.99005,13.4675625 1.93055,12.7876875 L1.03705294,2.625 L0.5,2.625 C0.224,2.625 0,2.429 0,2.1875 C0,1.946 0.224,1.75 0.5,1.75 L4,1.75 L4,1.3125 C4,0.588875 4.673,0 5.5,0 L8.5,0 C9.327,0 10,0.588875 10,1.3125 L10,1.75 Z M11.96005,2.625 L2.04005,2.625 L2.92755,12.72075 C2.94705,12.9478125 3.16605,13.125 3.42605,13.125 L10.57355,13.125 C10.83355,13.125 11.05205,12.9478125 11.07205,12.7211875 L11.96005,2.625 Z M5.5,12.25 C5.224,12.25 5,12.0544375 5,11.8125 L5,3.9375 C5,3.696 5.224,3.5 5.5,3.5 C5.776,3.5 6,3.696 6,3.9375 L6,11.8125 C6,12.0544375 5.776,12.25 5.5,12.25 Z M8.5,12.25 C8.2235,12.25 8,12.0544375 8,11.8125 L8,3.9375 C8,3.696 8.2235,3.5 8.5,3.5 C8.7765,3.5 9,3.696 9,3.9375 L9,11.8125 C9,12.0544375 8.7765,12.25 8.5,12.25 Z" id="Shape"></path>
                    </g>
                </g>
            </g>
        </g>
    </g>
</svg>